#!OML:ASF G:\JayActor3\Patient Classification 1\Patient 1\Session 5\male.ASF
:FULLY-SPECIFIED
:DEGREES
639
root 3.26049 18.2097 -6.22013 876.642 -84.3337 -858.243
lowerback 19.3783 -0.751549 3.27913
upperback 6.78716 -0.897093 -1.34136
thorax -3.57448 -0.590378 -3.08371
lowerneck 6.33717 1.19899 2.2705
upperneck -19.6378 1.94983 1.76186
head -7.03818 0.451666 0.0566018
rclavicle -3.69739e-014 -5.56597e-015
rhumerus -30.0217 -3.92754 -87.9263
rradius 26.7843
rwrist 6.02171
rhand -22.5509 -9.16525
rfingers 7.12502
rthumb 3.87683 -39.1097
lclavicle -3.69739e-014 -5.56597e-015
lhumerus -34.8329 4.87626 82.5685
lradius 29.7159
lwrist 21.2248
lhand -19.6282 14.6607
lfingers 7.12502
lthumb 6.69875 44.5347
rfemur -46.3847 3.8061 21.3768
rtibia 51.245
rfoot 3.79246 -7.64379
rtoes -5.44542
lfemur -25.7357 15.7425 -24.2762
ltibia 30.0531
lfoot 13.6133 -4.49321
ltoes -30.8351
640
root 3.08428 18.2157 -6.2179 876.647 -84.3337 -858.377
lowerback 19.3961 -0.807764 3.27721
upperback 6.85815 -0.97624 -1.33791
thorax -3.5135 -0.629572 -3.0616
lowerneck 6.36528 1.24036 2.27435
upperneck -19.7101 1.99897 1.71248
head -7.0658 0.476688 0.0360241
rclavicle -1.51076e-014 -2.22639e-014
rhumerus -30.0787 -4.07719 -87.7912
rradius 26.7577
rwrist 6.04667
rhand -22.5756 -9.15065
rfingers 7.12502
rthumb 3.85289 -39.0956
lclavicle -1.51076e-014 -2.22639e-014
lhumerus -34.7649 5.01787 82.455
lradius 29.5615
lwrist 21.0904
lhand -19.7789 14.636
lfingers 7.12502
lthumb 6.55324 44.5146
rfemur -47.2923 3.46657 21.5784
rtibia 50.2308
rfoot 4.01342 -8.24137
rtoes -5.3593
lfemur -24.4959 15.652 -24.1384
ltibia 29.2921
lfoot 13.6184 -4.34207
ltoes -31.2496
641
root 2.90629 18.2208 -6.21723 876.812 -84.3604 -858.676
lowerback 19.422 -0.859693 3.24089
upperback 6.92324 -1.05563 -1.33889
thorax -3.46288 -0.669278 -3.02449
lowerneck 6.39145 1.27619 2.27984
upperneck -19.7755 2.04224 1.67228
head -7.09103 0.498184 0.0185699
rclavicle -1.19271e-015 -1.90833e-014
rhumerus -30.1493 -4.22857 -87.6613
rradius 26.7188
rwrist 6.09013
rhand -22.6252 -9.13497
rfingers 7.12502
rthumb 3.80506 -39.0807
lclavicle -1.19271e-015 -1.90833e-014
lhumerus -34.7092 5.13923 82.35
lradius 29.4252
lwrist 20.9457
lhand -19.9332 14.6207
lfingers 7.12502
lthumb 6.40426 44.5039
rfemur -48.124 3.19767 21.7299
rtibia 49.096
rfoot 4.41644 -8.78914
rtoes -4.93524
lfemur -23.2021 15.5464 -24.0212
ltibia 28.4465
lfoot 13.6828 -4.17421
ltoes -31.5948
642
root 2.72635 18.2248 -6.21808 877.216 -84.4136 -859.217
lowerback 19.4548 -0.905733 3.16383
upperback 6.9777 -1.13406 -1.34639
thorax -3.42673 -0.70895 -2.97121
lowerneck 6.41277 1.30549 2.2834
upperneck -19.8235 2.07897 1.64753
head -7.10994 0.51592 0.00695244
rclavicle 1.35174e-014 2.38542e-014
rhumerus -30.2408 -4.37699 -87.5383
rradius 26.6706
rwrist 6.14944
rhand -22.6849 -9.12628
rfingers 7.12502
rthumb 3.74742 -39.0731
lclavicle 1.35174e-014 2.38542e-014
lhumerus -34.6694 5.23681 82.2543
lradius 29.3047
lwrist 20.7987
lhand -20.0755 14.62
lfingers 7.12502
lthumb 6.26697 44.5073
rfemur -48.8881 2.99273 21.8215
rtibia 47.8456
rfoot 5.05904 -9.2341
rtoes -4.40581
lfemur -21.8596 15.4318 -23.9313
ltibia 27.5176
lfoot 13.8219 -3.96769
ltoes -31.7962
643
root 2.54438 18.2273 -6.22077 878.018 -84.4987 -860.15
lowerback 19.4771 -0.943418 3.02557
upperback 7.02694 -1.21281 -1.36171
thorax -3.39019 -0.749153 -2.89137
lowerneck 6.42713 1.32833 2.28191
upperneck -19.8565 2.1084 1.63677
head -7.12298 0.52979 0.00131604
rclavicle 8.34896e-015 5.56597e-015
rhumerus -30.3421 -4.51422 -87.4232
rradius 26.6142
rwrist 6.21951
rhand -22.734 -9.12383
rfingers 7.12502
rthumb 3.69994 -39.0715
lclavicle 8.34896e-015 5.56597e-015
lhumerus -34.6365 5.31227 82.1724
lradius 29.2022
lwrist 20.6546
lhand -20.2043 14.6368
lfingers 7.12502
lthumb 6.14259 44.5277
rfemur -49.5984 2.84938 21.8336
rtibia 46.4864
rfoot 5.97568 -9.5655
rtoes -3.84633
lfemur -20.4758 15.3182 -23.8855
ltibia 26.5048
lfoot 14.0251 -3.77873
ltoes -31.9538
644
root 2.36019 18.2283 -6.225 879.077 -84.6066 -861.333
lowerback 19.4842 -0.973675 2.85233
upperback 7.07161 -1.28827 -1.38256
thorax -3.34984 -0.787864 -2.79837
lowerneck 6.4366 1.3435 2.27813
upperneck -19.8777 2.12906 1.63843
head -7.13157 0.538899 0.000808083
rclavicle -1.55052e-014 1.59028e-014
rhumerus -30.4536 -4.64975 -87.3149
rradius 26.5525
rwrist 6.30863
rhand -22.7784 -9.12802
rfingers 7.12502
rthumb 3.65713 -39.0764
lclavicle -1.55052e-014 1.59028e-014
lhumerus -34.6023 5.35445 82.1062
lradius 29.1063
lwrist 20.5225
lhand -20.3113 14.6491
lfingers 7.12502
lthumb 6.03927 44.543
rfemur -50.2557 2.75374 21.7908
rtibia 45.0263
rfoot 7.17995 -9.80339
rtoes -3.33767
lfemur -19.0528 15.2144 -23.8651
ltibia 25.4049
lfoot 14.2961 -3.62261
ltoes -32.089
645
root 2.17379 18.2276 -6.23077 880.501 -84.7351 -862.868
lowerback 19.4731 -0.995279 2.63532
upperback 7.11 -1.36024 -1.40889
thorax -3.30571 -0.825069 -2.68729
lowerneck 6.43809 1.35371 2.26591
upperneck -19.883 2.14387 1.65294
head -7.13382 0.545253 0.00638494
rclavicle -3.57812e-015 -3.02153e-014
rhumerus -30.5741 -4.78101 -87.2119
rradius 26.4833
rwrist 6.42019
rhand -22.8176 -9.13146
rfingers 7.12502
rthumb 3.61923 -39.0805
lclavicle -3.57812e-015 -3.02153e-014
lhumerus -34.5634 5.37336 82.0545
lradius 29.0132
lwrist 20.4032
lhand -20.3859 14.6744
lfingers 7.12502
lthumb 5.9673 44.5703
rfemur -50.8705 2.70404 21.6896
rtibia 43.4794
rfoot 8.65824 -9.99186
rtoes -2.87203
lfemur -17.5946 15.1242 -23.8776
ltibia 24.2135
lfoot 14.6409 -3.51225
ltoes -32.2304
